<mxfile host="Electron" modified="2025-01-15T03:31:43.254Z" agent="Mozilla/5.0 (Windows NT 10.0; Win64; x64) AppleWebKit/537.36 (KHTML, like Gecko) draw.io/21.1.2 Chrome/106.0.5249.199 Electron/21.4.3 Safari/537.36" etag="xrE6wTygvTK2M0pmE3iG" version="21.1.2" type="device">
  <diagram name="第 1 页" id="3Auc2yKGRoqOzea19vib">
    <mxGraphModel dx="2839" dy="683" grid="1" gridSize="10" guides="1" tooltips="1" connect="1" arrows="1" fold="1" page="1" pageScale="1" pageWidth="827" pageHeight="1169" math="1" shadow="0">
      <root>
        <mxCell id="0" />
        <mxCell id="1" parent="0" />
        <mxCell id="kqkQRGZJNf3CveF5nU2B-164" value="" style="rounded=1;whiteSpace=wrap;html=1;fontFamily=Helvetica;fontSize=11;fontColor=default;dashed=1;strokeWidth=2;" parent="1" vertex="1">
          <mxGeometry x="-1010" y="220.32" width="580" height="499.68" as="geometry" />
        </mxCell>
        <mxCell id="kqkQRGZJNf3CveF5nU2B-147" style="edgeStyle=none;shape=connector;rounded=0;orthogonalLoop=1;jettySize=auto;html=1;entryX=0;entryY=0.5;entryDx=0;entryDy=0;labelBackgroundColor=default;strokeColor=default;strokeWidth=2;fontFamily=Helvetica;fontSize=11;fontColor=default;endArrow=blockThin;endFill=1;exitX=1;exitY=0.5;exitDx=0;exitDy=0;" parent="1" source="kqkQRGZJNf3CveF5nU2B-2" target="kqkQRGZJNf3CveF5nU2B-9" edge="1">
          <mxGeometry relative="1" as="geometry" />
        </mxCell>
        <mxCell id="kqkQRGZJNf3CveF5nU2B-2" value="&lt;font style=&quot;font-size: 24px;&quot; face=&quot;Times New Roman&quot;&gt;PointCloud-SubNet&lt;/font&gt;" style="rounded=1;whiteSpace=wrap;html=1;fontFamily=Helvetica;fontSize=11;fillColor=#FFFFFF;strokeColor=#000000;flipH=0;" parent="1" vertex="1">
          <mxGeometry x="-923.5" y="309.01" width="253" height="72.62" as="geometry" />
        </mxCell>
        <mxCell id="kqkQRGZJNf3CveF5nU2B-4" value="" style="shape=table;startSize=0;container=1;collapsible=0;childLayout=tableLayout;fontFamily=Helvetica;fontSize=11;fontColor=default;fillColor=#666666;flipH=0;" parent="1" vertex="1">
          <mxGeometry x="-630" y="270.32" width="150" height="150" as="geometry" />
        </mxCell>
        <mxCell id="kqkQRGZJNf3CveF5nU2B-5" value="" style="shape=tableRow;horizontal=0;startSize=0;swimlaneHead=0;swimlaneBody=0;strokeColor=inherit;top=0;left=0;bottom=0;right=0;collapsible=0;dropTarget=0;fillColor=none;points=[[0,0.5],[1,0.5]];portConstraint=eastwest;fontFamily=Helvetica;fontSize=11;fontColor=default;" parent="kqkQRGZJNf3CveF5nU2B-4" vertex="1">
          <mxGeometry width="150" height="50" as="geometry" />
        </mxCell>
        <mxCell id="kqkQRGZJNf3CveF5nU2B-6" value="" style="shape=partialRectangle;html=1;whiteSpace=wrap;connectable=0;strokeColor=inherit;overflow=hidden;fillColor=none;top=0;left=0;bottom=0;right=0;pointerEvents=1;fontFamily=Helvetica;fontSize=11;fontColor=default;" parent="kqkQRGZJNf3CveF5nU2B-5" vertex="1">
          <mxGeometry width="50" height="50" as="geometry">
            <mxRectangle width="50" height="50" as="alternateBounds" />
          </mxGeometry>
        </mxCell>
        <mxCell id="kqkQRGZJNf3CveF5nU2B-7" value="" style="shape=partialRectangle;html=1;whiteSpace=wrap;connectable=0;strokeColor=inherit;overflow=hidden;fillColor=none;top=0;left=0;bottom=0;right=0;pointerEvents=1;fontFamily=Helvetica;fontSize=11;fontColor=default;" parent="kqkQRGZJNf3CveF5nU2B-5" vertex="1">
          <mxGeometry x="50" width="50" height="50" as="geometry">
            <mxRectangle width="50" height="50" as="alternateBounds" />
          </mxGeometry>
        </mxCell>
        <mxCell id="kqkQRGZJNf3CveF5nU2B-8" value="" style="shape=partialRectangle;html=1;whiteSpace=wrap;connectable=0;strokeColor=inherit;overflow=hidden;fillColor=none;top=0;left=0;bottom=0;right=0;pointerEvents=1;fontFamily=Helvetica;fontSize=11;fontColor=default;" parent="kqkQRGZJNf3CveF5nU2B-5" vertex="1">
          <mxGeometry x="100" width="50" height="50" as="geometry">
            <mxRectangle width="50" height="50" as="alternateBounds" />
          </mxGeometry>
        </mxCell>
        <mxCell id="kqkQRGZJNf3CveF5nU2B-9" value="" style="shape=tableRow;horizontal=0;startSize=0;swimlaneHead=0;swimlaneBody=0;strokeColor=inherit;top=0;left=0;bottom=0;right=0;collapsible=0;dropTarget=0;fillColor=none;points=[[0,0.5],[1,0.5]];portConstraint=eastwest;fontFamily=Helvetica;fontSize=11;fontColor=default;" parent="kqkQRGZJNf3CveF5nU2B-4" vertex="1">
          <mxGeometry y="50" width="150" height="50" as="geometry" />
        </mxCell>
        <mxCell id="kqkQRGZJNf3CveF5nU2B-10" value="" style="shape=partialRectangle;html=1;whiteSpace=wrap;connectable=0;strokeColor=inherit;overflow=hidden;fillColor=none;top=0;left=0;bottom=0;right=0;pointerEvents=1;fontFamily=Helvetica;fontSize=11;fontColor=default;" parent="kqkQRGZJNf3CveF5nU2B-9" vertex="1">
          <mxGeometry width="50" height="50" as="geometry">
            <mxRectangle width="50" height="50" as="alternateBounds" />
          </mxGeometry>
        </mxCell>
        <mxCell id="kqkQRGZJNf3CveF5nU2B-11" value="" style="shape=partialRectangle;html=1;whiteSpace=wrap;connectable=0;strokeColor=inherit;overflow=hidden;fillColor=none;top=0;left=0;bottom=0;right=0;pointerEvents=1;fontFamily=Helvetica;fontSize=11;fontColor=default;" parent="kqkQRGZJNf3CveF5nU2B-9" vertex="1">
          <mxGeometry x="50" width="50" height="50" as="geometry">
            <mxRectangle width="50" height="50" as="alternateBounds" />
          </mxGeometry>
        </mxCell>
        <mxCell id="kqkQRGZJNf3CveF5nU2B-12" value="" style="shape=partialRectangle;html=1;whiteSpace=wrap;connectable=0;strokeColor=inherit;overflow=hidden;fillColor=none;top=0;left=0;bottom=0;right=0;pointerEvents=1;fontFamily=Helvetica;fontSize=11;fontColor=default;" parent="kqkQRGZJNf3CveF5nU2B-9" vertex="1">
          <mxGeometry x="100" width="50" height="50" as="geometry">
            <mxRectangle width="50" height="50" as="alternateBounds" />
          </mxGeometry>
        </mxCell>
        <mxCell id="kqkQRGZJNf3CveF5nU2B-13" value="" style="shape=tableRow;horizontal=0;startSize=0;swimlaneHead=0;swimlaneBody=0;strokeColor=inherit;top=0;left=0;bottom=0;right=0;collapsible=0;dropTarget=0;fillColor=none;points=[[0,0.5],[1,0.5]];portConstraint=eastwest;fontFamily=Helvetica;fontSize=11;fontColor=default;" parent="kqkQRGZJNf3CveF5nU2B-4" vertex="1">
          <mxGeometry y="100" width="150" height="50" as="geometry" />
        </mxCell>
        <mxCell id="kqkQRGZJNf3CveF5nU2B-14" value="" style="shape=partialRectangle;html=1;whiteSpace=wrap;connectable=0;strokeColor=inherit;overflow=hidden;fillColor=none;top=0;left=0;bottom=0;right=0;pointerEvents=1;fontFamily=Helvetica;fontSize=11;fontColor=default;" parent="kqkQRGZJNf3CveF5nU2B-13" vertex="1">
          <mxGeometry width="50" height="50" as="geometry">
            <mxRectangle width="50" height="50" as="alternateBounds" />
          </mxGeometry>
        </mxCell>
        <mxCell id="kqkQRGZJNf3CveF5nU2B-15" value="" style="shape=partialRectangle;html=1;whiteSpace=wrap;connectable=0;strokeColor=inherit;overflow=hidden;fillColor=none;top=0;left=0;bottom=0;right=0;pointerEvents=1;fontFamily=Helvetica;fontSize=11;fontColor=default;" parent="kqkQRGZJNf3CveF5nU2B-13" vertex="1">
          <mxGeometry x="50" width="50" height="50" as="geometry">
            <mxRectangle width="50" height="50" as="alternateBounds" />
          </mxGeometry>
        </mxCell>
        <mxCell id="kqkQRGZJNf3CveF5nU2B-16" value="" style="shape=partialRectangle;html=1;whiteSpace=wrap;connectable=0;strokeColor=inherit;overflow=hidden;fillColor=none;top=0;left=0;bottom=0;right=0;pointerEvents=1;fontFamily=Helvetica;fontSize=11;fontColor=default;" parent="kqkQRGZJNf3CveF5nU2B-13" vertex="1">
          <mxGeometry x="100" width="50" height="50" as="geometry">
            <mxRectangle width="50" height="50" as="alternateBounds" />
          </mxGeometry>
        </mxCell>
        <mxCell id="kqkQRGZJNf3CveF5nU2B-17" value="" style="shape=table;startSize=0;container=1;collapsible=0;childLayout=tableLayout;fontFamily=Helvetica;fontSize=11;fontColor=default;fontStyle=1;flipH=0;" parent="1" vertex="1">
          <mxGeometry x="-620" y="280.32" width="150" height="150" as="geometry" />
        </mxCell>
        <mxCell id="kqkQRGZJNf3CveF5nU2B-18" value="" style="shape=tableRow;horizontal=0;startSize=0;swimlaneHead=0;swimlaneBody=0;strokeColor=inherit;top=0;left=0;bottom=0;right=0;collapsible=0;dropTarget=0;fillColor=none;points=[[0,0.5],[1,0.5]];portConstraint=eastwest;fontFamily=Helvetica;fontSize=11;fontColor=default;" parent="kqkQRGZJNf3CveF5nU2B-17" vertex="1">
          <mxGeometry width="150" height="50" as="geometry" />
        </mxCell>
        <mxCell id="kqkQRGZJNf3CveF5nU2B-19" value="" style="shape=partialRectangle;html=1;whiteSpace=wrap;connectable=0;strokeColor=inherit;overflow=hidden;fillColor=none;top=0;left=0;bottom=0;right=0;pointerEvents=1;fontFamily=Helvetica;fontSize=11;fontColor=default;" parent="kqkQRGZJNf3CveF5nU2B-18" vertex="1">
          <mxGeometry width="50" height="50" as="geometry">
            <mxRectangle width="50" height="50" as="alternateBounds" />
          </mxGeometry>
        </mxCell>
        <mxCell id="kqkQRGZJNf3CveF5nU2B-20" value="" style="shape=partialRectangle;html=1;whiteSpace=wrap;connectable=0;strokeColor=inherit;overflow=hidden;fillColor=none;top=0;left=0;bottom=0;right=0;pointerEvents=1;fontFamily=Helvetica;fontSize=11;fontColor=default;" parent="kqkQRGZJNf3CveF5nU2B-18" vertex="1">
          <mxGeometry x="50" width="50" height="50" as="geometry">
            <mxRectangle width="50" height="50" as="alternateBounds" />
          </mxGeometry>
        </mxCell>
        <mxCell id="kqkQRGZJNf3CveF5nU2B-21" value="" style="shape=partialRectangle;html=1;whiteSpace=wrap;connectable=0;strokeColor=inherit;overflow=hidden;fillColor=none;top=0;left=0;bottom=0;right=0;pointerEvents=1;fontFamily=Helvetica;fontSize=11;fontColor=default;" parent="kqkQRGZJNf3CveF5nU2B-18" vertex="1">
          <mxGeometry x="100" width="50" height="50" as="geometry">
            <mxRectangle width="50" height="50" as="alternateBounds" />
          </mxGeometry>
        </mxCell>
        <mxCell id="kqkQRGZJNf3CveF5nU2B-22" value="" style="shape=tableRow;horizontal=0;startSize=0;swimlaneHead=0;swimlaneBody=0;strokeColor=inherit;top=0;left=0;bottom=0;right=0;collapsible=0;dropTarget=0;fillColor=none;points=[[0,0.5],[1,0.5]];portConstraint=eastwest;fontFamily=Helvetica;fontSize=11;fontColor=default;" parent="kqkQRGZJNf3CveF5nU2B-17" vertex="1">
          <mxGeometry y="50" width="150" height="50" as="geometry" />
        </mxCell>
        <mxCell id="kqkQRGZJNf3CveF5nU2B-23" value="" style="shape=partialRectangle;html=1;whiteSpace=wrap;connectable=0;strokeColor=inherit;overflow=hidden;fillColor=none;top=0;left=0;bottom=0;right=0;pointerEvents=1;fontFamily=Helvetica;fontSize=11;fontColor=default;" parent="kqkQRGZJNf3CveF5nU2B-22" vertex="1">
          <mxGeometry width="50" height="50" as="geometry">
            <mxRectangle width="50" height="50" as="alternateBounds" />
          </mxGeometry>
        </mxCell>
        <mxCell id="kqkQRGZJNf3CveF5nU2B-24" value="" style="shape=partialRectangle;html=1;whiteSpace=wrap;connectable=0;strokeColor=inherit;overflow=hidden;fillColor=none;top=0;left=0;bottom=0;right=0;pointerEvents=1;fontFamily=Helvetica;fontSize=11;fontColor=default;" parent="kqkQRGZJNf3CveF5nU2B-22" vertex="1">
          <mxGeometry x="50" width="50" height="50" as="geometry">
            <mxRectangle width="50" height="50" as="alternateBounds" />
          </mxGeometry>
        </mxCell>
        <mxCell id="kqkQRGZJNf3CveF5nU2B-25" value="" style="shape=partialRectangle;html=1;whiteSpace=wrap;connectable=0;strokeColor=inherit;overflow=hidden;fillColor=none;top=0;left=0;bottom=0;right=0;pointerEvents=1;fontFamily=Helvetica;fontSize=11;fontColor=default;" parent="kqkQRGZJNf3CveF5nU2B-22" vertex="1">
          <mxGeometry x="100" width="50" height="50" as="geometry">
            <mxRectangle width="50" height="50" as="alternateBounds" />
          </mxGeometry>
        </mxCell>
        <mxCell id="kqkQRGZJNf3CveF5nU2B-26" value="" style="shape=tableRow;horizontal=0;startSize=0;swimlaneHead=0;swimlaneBody=0;strokeColor=inherit;top=0;left=0;bottom=0;right=0;collapsible=0;dropTarget=0;fillColor=none;points=[[0,0.5],[1,0.5]];portConstraint=eastwest;fontFamily=Helvetica;fontSize=11;fontColor=default;" parent="kqkQRGZJNf3CveF5nU2B-17" vertex="1">
          <mxGeometry y="100" width="150" height="50" as="geometry" />
        </mxCell>
        <mxCell id="kqkQRGZJNf3CveF5nU2B-27" value="" style="shape=partialRectangle;html=1;whiteSpace=wrap;connectable=0;strokeColor=inherit;overflow=hidden;fillColor=none;top=0;left=0;bottom=0;right=0;pointerEvents=1;fontFamily=Helvetica;fontSize=11;fontColor=default;" parent="kqkQRGZJNf3CveF5nU2B-26" vertex="1">
          <mxGeometry width="50" height="50" as="geometry">
            <mxRectangle width="50" height="50" as="alternateBounds" />
          </mxGeometry>
        </mxCell>
        <mxCell id="kqkQRGZJNf3CveF5nU2B-28" value="" style="shape=partialRectangle;html=1;whiteSpace=wrap;connectable=0;strokeColor=inherit;overflow=hidden;fillColor=none;top=0;left=0;bottom=0;right=0;pointerEvents=1;fontFamily=Helvetica;fontSize=11;fontColor=default;" parent="kqkQRGZJNf3CveF5nU2B-26" vertex="1">
          <mxGeometry x="50" width="50" height="50" as="geometry">
            <mxRectangle width="50" height="50" as="alternateBounds" />
          </mxGeometry>
        </mxCell>
        <mxCell id="kqkQRGZJNf3CveF5nU2B-29" value="" style="shape=partialRectangle;html=1;whiteSpace=wrap;connectable=0;strokeColor=inherit;overflow=hidden;fillColor=none;top=0;left=0;bottom=0;right=0;pointerEvents=1;fontFamily=Helvetica;fontSize=11;fontColor=default;" parent="kqkQRGZJNf3CveF5nU2B-26" vertex="1">
          <mxGeometry x="100" width="50" height="50" as="geometry">
            <mxRectangle width="50" height="50" as="alternateBounds" />
          </mxGeometry>
        </mxCell>
        <mxCell id="kqkQRGZJNf3CveF5nU2B-30" value="" style="shape=table;startSize=0;container=1;collapsible=0;childLayout=tableLayout;fontFamily=Helvetica;fontSize=11;fontColor=default;fillColor=#CCCCCC;flipH=0;" parent="1" vertex="1">
          <mxGeometry x="-610" y="290.32" width="150" height="150" as="geometry" />
        </mxCell>
        <mxCell id="kqkQRGZJNf3CveF5nU2B-31" value="" style="shape=tableRow;horizontal=0;startSize=0;swimlaneHead=0;swimlaneBody=0;strokeColor=inherit;top=0;left=0;bottom=0;right=0;collapsible=0;dropTarget=0;fillColor=none;points=[[0,0.5],[1,0.5]];portConstraint=eastwest;fontFamily=Helvetica;fontSize=11;fontColor=default;" parent="kqkQRGZJNf3CveF5nU2B-30" vertex="1">
          <mxGeometry width="150" height="50" as="geometry" />
        </mxCell>
        <mxCell id="kqkQRGZJNf3CveF5nU2B-32" value="" style="shape=partialRectangle;html=1;whiteSpace=wrap;connectable=0;strokeColor=inherit;overflow=hidden;fillColor=none;top=0;left=0;bottom=0;right=0;pointerEvents=1;fontFamily=Helvetica;fontSize=11;fontColor=default;" parent="kqkQRGZJNf3CveF5nU2B-31" vertex="1">
          <mxGeometry width="50" height="50" as="geometry">
            <mxRectangle width="50" height="50" as="alternateBounds" />
          </mxGeometry>
        </mxCell>
        <mxCell id="kqkQRGZJNf3CveF5nU2B-33" value="" style="shape=partialRectangle;html=1;whiteSpace=wrap;connectable=0;strokeColor=inherit;overflow=hidden;fillColor=none;top=0;left=0;bottom=0;right=0;pointerEvents=1;fontFamily=Helvetica;fontSize=11;fontColor=default;" parent="kqkQRGZJNf3CveF5nU2B-31" vertex="1">
          <mxGeometry x="50" width="50" height="50" as="geometry">
            <mxRectangle width="50" height="50" as="alternateBounds" />
          </mxGeometry>
        </mxCell>
        <mxCell id="kqkQRGZJNf3CveF5nU2B-34" value="" style="shape=partialRectangle;html=1;whiteSpace=wrap;connectable=0;strokeColor=inherit;overflow=hidden;fillColor=none;top=0;left=0;bottom=0;right=0;pointerEvents=1;fontFamily=Helvetica;fontSize=11;fontColor=default;" parent="kqkQRGZJNf3CveF5nU2B-31" vertex="1">
          <mxGeometry x="100" width="50" height="50" as="geometry">
            <mxRectangle width="50" height="50" as="alternateBounds" />
          </mxGeometry>
        </mxCell>
        <mxCell id="kqkQRGZJNf3CveF5nU2B-35" value="" style="shape=tableRow;horizontal=0;startSize=0;swimlaneHead=0;swimlaneBody=0;strokeColor=inherit;top=0;left=0;bottom=0;right=0;collapsible=0;dropTarget=0;fillColor=none;points=[[0,0.5],[1,0.5]];portConstraint=eastwest;fontFamily=Helvetica;fontSize=11;fontColor=default;" parent="kqkQRGZJNf3CveF5nU2B-30" vertex="1">
          <mxGeometry y="50" width="150" height="50" as="geometry" />
        </mxCell>
        <mxCell id="kqkQRGZJNf3CveF5nU2B-36" value="" style="shape=partialRectangle;html=1;whiteSpace=wrap;connectable=0;strokeColor=inherit;overflow=hidden;fillColor=none;top=0;left=0;bottom=0;right=0;pointerEvents=1;fontFamily=Helvetica;fontSize=11;fontColor=default;" parent="kqkQRGZJNf3CveF5nU2B-35" vertex="1">
          <mxGeometry width="50" height="50" as="geometry">
            <mxRectangle width="50" height="50" as="alternateBounds" />
          </mxGeometry>
        </mxCell>
        <mxCell id="kqkQRGZJNf3CveF5nU2B-37" value="" style="shape=partialRectangle;html=1;whiteSpace=wrap;connectable=0;strokeColor=inherit;overflow=hidden;fillColor=none;top=0;left=0;bottom=0;right=0;pointerEvents=1;fontFamily=Helvetica;fontSize=11;fontColor=default;" parent="kqkQRGZJNf3CveF5nU2B-35" vertex="1">
          <mxGeometry x="50" width="50" height="50" as="geometry">
            <mxRectangle width="50" height="50" as="alternateBounds" />
          </mxGeometry>
        </mxCell>
        <mxCell id="kqkQRGZJNf3CveF5nU2B-38" value="" style="shape=partialRectangle;html=1;whiteSpace=wrap;connectable=0;strokeColor=inherit;overflow=hidden;fillColor=none;top=0;left=0;bottom=0;right=0;pointerEvents=1;fontFamily=Helvetica;fontSize=11;fontColor=default;" parent="kqkQRGZJNf3CveF5nU2B-35" vertex="1">
          <mxGeometry x="100" width="50" height="50" as="geometry">
            <mxRectangle width="50" height="50" as="alternateBounds" />
          </mxGeometry>
        </mxCell>
        <mxCell id="kqkQRGZJNf3CveF5nU2B-39" value="" style="shape=tableRow;horizontal=0;startSize=0;swimlaneHead=0;swimlaneBody=0;strokeColor=inherit;top=0;left=0;bottom=0;right=0;collapsible=0;dropTarget=0;fillColor=none;points=[[0,0.5],[1,0.5]];portConstraint=eastwest;fontFamily=Helvetica;fontSize=11;fontColor=default;" parent="kqkQRGZJNf3CveF5nU2B-30" vertex="1">
          <mxGeometry y="100" width="150" height="50" as="geometry" />
        </mxCell>
        <mxCell id="kqkQRGZJNf3CveF5nU2B-40" value="" style="shape=partialRectangle;html=1;whiteSpace=wrap;connectable=0;strokeColor=inherit;overflow=hidden;fillColor=none;top=0;left=0;bottom=0;right=0;pointerEvents=1;fontFamily=Helvetica;fontSize=11;fontColor=default;" parent="kqkQRGZJNf3CveF5nU2B-39" vertex="1">
          <mxGeometry width="50" height="50" as="geometry">
            <mxRectangle width="50" height="50" as="alternateBounds" />
          </mxGeometry>
        </mxCell>
        <mxCell id="kqkQRGZJNf3CveF5nU2B-41" value="" style="shape=partialRectangle;html=1;whiteSpace=wrap;connectable=0;strokeColor=inherit;overflow=hidden;fillColor=none;top=0;left=0;bottom=0;right=0;pointerEvents=1;fontFamily=Helvetica;fontSize=11;fontColor=default;" parent="kqkQRGZJNf3CveF5nU2B-39" vertex="1">
          <mxGeometry x="50" width="50" height="50" as="geometry">
            <mxRectangle width="50" height="50" as="alternateBounds" />
          </mxGeometry>
        </mxCell>
        <mxCell id="kqkQRGZJNf3CveF5nU2B-42" value="" style="shape=partialRectangle;html=1;whiteSpace=wrap;connectable=0;strokeColor=inherit;overflow=hidden;fillColor=none;top=0;left=0;bottom=0;right=0;pointerEvents=1;fontFamily=Helvetica;fontSize=11;fontColor=default;" parent="kqkQRGZJNf3CveF5nU2B-39" vertex="1">
          <mxGeometry x="100" width="50" height="50" as="geometry">
            <mxRectangle width="50" height="50" as="alternateBounds" />
          </mxGeometry>
        </mxCell>
        <mxCell id="kqkQRGZJNf3CveF5nU2B-150" style="edgeStyle=none;shape=connector;rounded=0;orthogonalLoop=1;jettySize=auto;html=1;entryX=0;entryY=0.5;entryDx=0;entryDy=0;labelBackgroundColor=default;strokeColor=default;strokeWidth=2;fontFamily=Helvetica;fontSize=11;fontColor=default;endArrow=blockThin;endFill=1;exitX=1;exitY=0.5;exitDx=0;exitDy=0;" parent="1" source="kqkQRGZJNf3CveF5nU2B-43" target="kqkQRGZJNf3CveF5nU2B-50" edge="1">
          <mxGeometry relative="1" as="geometry" />
        </mxCell>
        <mxCell id="kqkQRGZJNf3CveF5nU2B-43" value="&lt;font style=&quot;font-size: 24px;&quot; face=&quot;Times New Roman&quot;&gt;Targets-SubNet&lt;/font&gt;" style="rounded=1;whiteSpace=wrap;html=1;fontFamily=Helvetica;fontSize=11;fillColor=#FFFFFF;strokeColor=#000000;flipH=0;" parent="1" vertex="1">
          <mxGeometry x="-923.5" y="538.85" width="253" height="72.62" as="geometry" />
        </mxCell>
        <mxCell id="kqkQRGZJNf3CveF5nU2B-45" value="" style="shape=table;startSize=0;container=1;collapsible=0;childLayout=tableLayout;fontFamily=Helvetica;fontSize=11;fontColor=default;fillColor=#666666;flipH=0;" parent="1" vertex="1">
          <mxGeometry x="-630" y="500" width="150" height="150" as="geometry" />
        </mxCell>
        <mxCell id="kqkQRGZJNf3CveF5nU2B-46" value="" style="shape=tableRow;horizontal=0;startSize=0;swimlaneHead=0;swimlaneBody=0;strokeColor=inherit;top=0;left=0;bottom=0;right=0;collapsible=0;dropTarget=0;fillColor=none;points=[[0,0.5],[1,0.5]];portConstraint=eastwest;fontFamily=Helvetica;fontSize=11;fontColor=default;" parent="kqkQRGZJNf3CveF5nU2B-45" vertex="1">
          <mxGeometry width="150" height="50" as="geometry" />
        </mxCell>
        <mxCell id="kqkQRGZJNf3CveF5nU2B-47" value="" style="shape=partialRectangle;html=1;whiteSpace=wrap;connectable=0;strokeColor=inherit;overflow=hidden;fillColor=none;top=0;left=0;bottom=0;right=0;pointerEvents=1;fontFamily=Helvetica;fontSize=11;fontColor=default;" parent="kqkQRGZJNf3CveF5nU2B-46" vertex="1">
          <mxGeometry width="50" height="50" as="geometry">
            <mxRectangle width="50" height="50" as="alternateBounds" />
          </mxGeometry>
        </mxCell>
        <mxCell id="kqkQRGZJNf3CveF5nU2B-48" value="" style="shape=partialRectangle;html=1;whiteSpace=wrap;connectable=0;strokeColor=inherit;overflow=hidden;fillColor=none;top=0;left=0;bottom=0;right=0;pointerEvents=1;fontFamily=Helvetica;fontSize=11;fontColor=default;" parent="kqkQRGZJNf3CveF5nU2B-46" vertex="1">
          <mxGeometry x="50" width="50" height="50" as="geometry">
            <mxRectangle width="50" height="50" as="alternateBounds" />
          </mxGeometry>
        </mxCell>
        <mxCell id="kqkQRGZJNf3CveF5nU2B-49" value="" style="shape=partialRectangle;html=1;whiteSpace=wrap;connectable=0;strokeColor=inherit;overflow=hidden;fillColor=none;top=0;left=0;bottom=0;right=0;pointerEvents=1;fontFamily=Helvetica;fontSize=11;fontColor=default;" parent="kqkQRGZJNf3CveF5nU2B-46" vertex="1">
          <mxGeometry x="100" width="50" height="50" as="geometry">
            <mxRectangle width="50" height="50" as="alternateBounds" />
          </mxGeometry>
        </mxCell>
        <mxCell id="kqkQRGZJNf3CveF5nU2B-50" value="" style="shape=tableRow;horizontal=0;startSize=0;swimlaneHead=0;swimlaneBody=0;strokeColor=inherit;top=0;left=0;bottom=0;right=0;collapsible=0;dropTarget=0;fillColor=none;points=[[0,0.5],[1,0.5]];portConstraint=eastwest;fontFamily=Helvetica;fontSize=11;fontColor=default;" parent="kqkQRGZJNf3CveF5nU2B-45" vertex="1">
          <mxGeometry y="50" width="150" height="50" as="geometry" />
        </mxCell>
        <mxCell id="kqkQRGZJNf3CveF5nU2B-51" value="" style="shape=partialRectangle;html=1;whiteSpace=wrap;connectable=0;strokeColor=inherit;overflow=hidden;fillColor=none;top=0;left=0;bottom=0;right=0;pointerEvents=1;fontFamily=Helvetica;fontSize=11;fontColor=default;" parent="kqkQRGZJNf3CveF5nU2B-50" vertex="1">
          <mxGeometry width="50" height="50" as="geometry">
            <mxRectangle width="50" height="50" as="alternateBounds" />
          </mxGeometry>
        </mxCell>
        <mxCell id="kqkQRGZJNf3CveF5nU2B-52" value="" style="shape=partialRectangle;html=1;whiteSpace=wrap;connectable=0;strokeColor=inherit;overflow=hidden;fillColor=none;top=0;left=0;bottom=0;right=0;pointerEvents=1;fontFamily=Helvetica;fontSize=11;fontColor=default;" parent="kqkQRGZJNf3CveF5nU2B-50" vertex="1">
          <mxGeometry x="50" width="50" height="50" as="geometry">
            <mxRectangle width="50" height="50" as="alternateBounds" />
          </mxGeometry>
        </mxCell>
        <mxCell id="kqkQRGZJNf3CveF5nU2B-53" value="" style="shape=partialRectangle;html=1;whiteSpace=wrap;connectable=0;strokeColor=inherit;overflow=hidden;fillColor=none;top=0;left=0;bottom=0;right=0;pointerEvents=1;fontFamily=Helvetica;fontSize=11;fontColor=default;" parent="kqkQRGZJNf3CveF5nU2B-50" vertex="1">
          <mxGeometry x="100" width="50" height="50" as="geometry">
            <mxRectangle width="50" height="50" as="alternateBounds" />
          </mxGeometry>
        </mxCell>
        <mxCell id="kqkQRGZJNf3CveF5nU2B-54" value="" style="shape=tableRow;horizontal=0;startSize=0;swimlaneHead=0;swimlaneBody=0;strokeColor=inherit;top=0;left=0;bottom=0;right=0;collapsible=0;dropTarget=0;fillColor=none;points=[[0,0.5],[1,0.5]];portConstraint=eastwest;fontFamily=Helvetica;fontSize=11;fontColor=default;" parent="kqkQRGZJNf3CveF5nU2B-45" vertex="1">
          <mxGeometry y="100" width="150" height="50" as="geometry" />
        </mxCell>
        <mxCell id="kqkQRGZJNf3CveF5nU2B-55" value="" style="shape=partialRectangle;html=1;whiteSpace=wrap;connectable=0;strokeColor=inherit;overflow=hidden;fillColor=none;top=0;left=0;bottom=0;right=0;pointerEvents=1;fontFamily=Helvetica;fontSize=11;fontColor=default;" parent="kqkQRGZJNf3CveF5nU2B-54" vertex="1">
          <mxGeometry width="50" height="50" as="geometry">
            <mxRectangle width="50" height="50" as="alternateBounds" />
          </mxGeometry>
        </mxCell>
        <mxCell id="kqkQRGZJNf3CveF5nU2B-56" value="" style="shape=partialRectangle;html=1;whiteSpace=wrap;connectable=0;strokeColor=inherit;overflow=hidden;fillColor=none;top=0;left=0;bottom=0;right=0;pointerEvents=1;fontFamily=Helvetica;fontSize=11;fontColor=default;" parent="kqkQRGZJNf3CveF5nU2B-54" vertex="1">
          <mxGeometry x="50" width="50" height="50" as="geometry">
            <mxRectangle width="50" height="50" as="alternateBounds" />
          </mxGeometry>
        </mxCell>
        <mxCell id="kqkQRGZJNf3CveF5nU2B-57" value="" style="shape=partialRectangle;html=1;whiteSpace=wrap;connectable=0;strokeColor=inherit;overflow=hidden;fillColor=none;top=0;left=0;bottom=0;right=0;pointerEvents=1;fontFamily=Helvetica;fontSize=11;fontColor=default;" parent="kqkQRGZJNf3CveF5nU2B-54" vertex="1">
          <mxGeometry x="100" width="50" height="50" as="geometry">
            <mxRectangle width="50" height="50" as="alternateBounds" />
          </mxGeometry>
        </mxCell>
        <mxCell id="kqkQRGZJNf3CveF5nU2B-58" value="" style="shape=table;startSize=0;container=1;collapsible=0;childLayout=tableLayout;fontFamily=Helvetica;fontSize=11;fontColor=default;fontStyle=1;fillColor=#CCCCCC;flipH=0;" parent="1" vertex="1">
          <mxGeometry x="-620" y="510" width="150" height="150" as="geometry" />
        </mxCell>
        <mxCell id="kqkQRGZJNf3CveF5nU2B-59" value="" style="shape=tableRow;horizontal=0;startSize=0;swimlaneHead=0;swimlaneBody=0;strokeColor=inherit;top=0;left=0;bottom=0;right=0;collapsible=0;dropTarget=0;fillColor=none;points=[[0,0.5],[1,0.5]];portConstraint=eastwest;fontFamily=Helvetica;fontSize=11;fontColor=default;" parent="kqkQRGZJNf3CveF5nU2B-58" vertex="1">
          <mxGeometry width="150" height="50" as="geometry" />
        </mxCell>
        <mxCell id="kqkQRGZJNf3CveF5nU2B-60" value="" style="shape=partialRectangle;html=1;whiteSpace=wrap;connectable=0;strokeColor=inherit;overflow=hidden;fillColor=none;top=0;left=0;bottom=0;right=0;pointerEvents=1;fontFamily=Helvetica;fontSize=11;fontColor=default;" parent="kqkQRGZJNf3CveF5nU2B-59" vertex="1">
          <mxGeometry width="50" height="50" as="geometry">
            <mxRectangle width="50" height="50" as="alternateBounds" />
          </mxGeometry>
        </mxCell>
        <mxCell id="kqkQRGZJNf3CveF5nU2B-61" value="" style="shape=partialRectangle;html=1;whiteSpace=wrap;connectable=0;strokeColor=inherit;overflow=hidden;fillColor=none;top=0;left=0;bottom=0;right=0;pointerEvents=1;fontFamily=Helvetica;fontSize=11;fontColor=default;" parent="kqkQRGZJNf3CveF5nU2B-59" vertex="1">
          <mxGeometry x="50" width="50" height="50" as="geometry">
            <mxRectangle width="50" height="50" as="alternateBounds" />
          </mxGeometry>
        </mxCell>
        <mxCell id="kqkQRGZJNf3CveF5nU2B-62" value="" style="shape=partialRectangle;html=1;whiteSpace=wrap;connectable=0;strokeColor=inherit;overflow=hidden;fillColor=none;top=0;left=0;bottom=0;right=0;pointerEvents=1;fontFamily=Helvetica;fontSize=11;fontColor=default;" parent="kqkQRGZJNf3CveF5nU2B-59" vertex="1">
          <mxGeometry x="100" width="50" height="50" as="geometry">
            <mxRectangle width="50" height="50" as="alternateBounds" />
          </mxGeometry>
        </mxCell>
        <mxCell id="kqkQRGZJNf3CveF5nU2B-63" value="" style="shape=tableRow;horizontal=0;startSize=0;swimlaneHead=0;swimlaneBody=0;strokeColor=inherit;top=0;left=0;bottom=0;right=0;collapsible=0;dropTarget=0;fillColor=none;points=[[0,0.5],[1,0.5]];portConstraint=eastwest;fontFamily=Helvetica;fontSize=11;fontColor=default;" parent="kqkQRGZJNf3CveF5nU2B-58" vertex="1">
          <mxGeometry y="50" width="150" height="50" as="geometry" />
        </mxCell>
        <mxCell id="kqkQRGZJNf3CveF5nU2B-64" value="" style="shape=partialRectangle;html=1;whiteSpace=wrap;connectable=0;strokeColor=inherit;overflow=hidden;fillColor=none;top=0;left=0;bottom=0;right=0;pointerEvents=1;fontFamily=Helvetica;fontSize=11;fontColor=default;" parent="kqkQRGZJNf3CveF5nU2B-63" vertex="1">
          <mxGeometry width="50" height="50" as="geometry">
            <mxRectangle width="50" height="50" as="alternateBounds" />
          </mxGeometry>
        </mxCell>
        <mxCell id="kqkQRGZJNf3CveF5nU2B-65" value="" style="shape=partialRectangle;html=1;whiteSpace=wrap;connectable=0;strokeColor=inherit;overflow=hidden;fillColor=none;top=0;left=0;bottom=0;right=0;pointerEvents=1;fontFamily=Helvetica;fontSize=11;fontColor=default;" parent="kqkQRGZJNf3CveF5nU2B-63" vertex="1">
          <mxGeometry x="50" width="50" height="50" as="geometry">
            <mxRectangle width="50" height="50" as="alternateBounds" />
          </mxGeometry>
        </mxCell>
        <mxCell id="kqkQRGZJNf3CveF5nU2B-66" value="" style="shape=partialRectangle;html=1;whiteSpace=wrap;connectable=0;strokeColor=inherit;overflow=hidden;fillColor=none;top=0;left=0;bottom=0;right=0;pointerEvents=1;fontFamily=Helvetica;fontSize=11;fontColor=default;" parent="kqkQRGZJNf3CveF5nU2B-63" vertex="1">
          <mxGeometry x="100" width="50" height="50" as="geometry">
            <mxRectangle width="50" height="50" as="alternateBounds" />
          </mxGeometry>
        </mxCell>
        <mxCell id="kqkQRGZJNf3CveF5nU2B-67" value="" style="shape=tableRow;horizontal=0;startSize=0;swimlaneHead=0;swimlaneBody=0;strokeColor=inherit;top=0;left=0;bottom=0;right=0;collapsible=0;dropTarget=0;fillColor=none;points=[[0,0.5],[1,0.5]];portConstraint=eastwest;fontFamily=Helvetica;fontSize=11;fontColor=default;" parent="kqkQRGZJNf3CveF5nU2B-58" vertex="1">
          <mxGeometry y="100" width="150" height="50" as="geometry" />
        </mxCell>
        <mxCell id="kqkQRGZJNf3CveF5nU2B-68" value="" style="shape=partialRectangle;html=1;whiteSpace=wrap;connectable=0;strokeColor=inherit;overflow=hidden;fillColor=none;top=0;left=0;bottom=0;right=0;pointerEvents=1;fontFamily=Helvetica;fontSize=11;fontColor=default;" parent="kqkQRGZJNf3CveF5nU2B-67" vertex="1">
          <mxGeometry width="50" height="50" as="geometry">
            <mxRectangle width="50" height="50" as="alternateBounds" />
          </mxGeometry>
        </mxCell>
        <mxCell id="kqkQRGZJNf3CveF5nU2B-69" value="" style="shape=partialRectangle;html=1;whiteSpace=wrap;connectable=0;strokeColor=inherit;overflow=hidden;fillColor=none;top=0;left=0;bottom=0;right=0;pointerEvents=1;fontFamily=Helvetica;fontSize=11;fontColor=default;" parent="kqkQRGZJNf3CveF5nU2B-67" vertex="1">
          <mxGeometry x="50" width="50" height="50" as="geometry">
            <mxRectangle width="50" height="50" as="alternateBounds" />
          </mxGeometry>
        </mxCell>
        <mxCell id="kqkQRGZJNf3CveF5nU2B-70" value="" style="shape=partialRectangle;html=1;whiteSpace=wrap;connectable=0;strokeColor=inherit;overflow=hidden;fillColor=none;top=0;left=0;bottom=0;right=0;pointerEvents=1;fontFamily=Helvetica;fontSize=11;fontColor=default;" parent="kqkQRGZJNf3CveF5nU2B-67" vertex="1">
          <mxGeometry x="100" width="50" height="50" as="geometry">
            <mxRectangle width="50" height="50" as="alternateBounds" />
          </mxGeometry>
        </mxCell>
        <mxCell id="kqkQRGZJNf3CveF5nU2B-71" value="" style="shape=table;startSize=0;container=1;collapsible=0;childLayout=tableLayout;fontFamily=Helvetica;fontSize=11;fontColor=default;fillColor=#FFFFFF;flipH=0;" parent="1" vertex="1">
          <mxGeometry x="-610" y="520" width="150" height="150" as="geometry" />
        </mxCell>
        <mxCell id="kqkQRGZJNf3CveF5nU2B-72" value="" style="shape=tableRow;horizontal=0;startSize=0;swimlaneHead=0;swimlaneBody=0;strokeColor=inherit;top=0;left=0;bottom=0;right=0;collapsible=0;dropTarget=0;fillColor=none;points=[[0,0.5],[1,0.5]];portConstraint=eastwest;fontFamily=Helvetica;fontSize=11;fontColor=default;" parent="kqkQRGZJNf3CveF5nU2B-71" vertex="1">
          <mxGeometry width="150" height="50" as="geometry" />
        </mxCell>
        <mxCell id="kqkQRGZJNf3CveF5nU2B-73" value="" style="shape=partialRectangle;html=1;whiteSpace=wrap;connectable=0;strokeColor=inherit;overflow=hidden;fillColor=none;top=0;left=0;bottom=0;right=0;pointerEvents=1;fontFamily=Helvetica;fontSize=11;fontColor=default;" parent="kqkQRGZJNf3CveF5nU2B-72" vertex="1">
          <mxGeometry width="50" height="50" as="geometry">
            <mxRectangle width="50" height="50" as="alternateBounds" />
          </mxGeometry>
        </mxCell>
        <mxCell id="kqkQRGZJNf3CveF5nU2B-74" value="" style="shape=partialRectangle;html=1;whiteSpace=wrap;connectable=0;strokeColor=inherit;overflow=hidden;fillColor=none;top=0;left=0;bottom=0;right=0;pointerEvents=1;fontFamily=Helvetica;fontSize=11;fontColor=default;" parent="kqkQRGZJNf3CveF5nU2B-72" vertex="1">
          <mxGeometry x="50" width="50" height="50" as="geometry">
            <mxRectangle width="50" height="50" as="alternateBounds" />
          </mxGeometry>
        </mxCell>
        <mxCell id="kqkQRGZJNf3CveF5nU2B-75" value="" style="shape=partialRectangle;html=1;whiteSpace=wrap;connectable=0;strokeColor=inherit;overflow=hidden;fillColor=none;top=0;left=0;bottom=0;right=0;pointerEvents=1;fontFamily=Helvetica;fontSize=11;fontColor=default;" parent="kqkQRGZJNf3CveF5nU2B-72" vertex="1">
          <mxGeometry x="100" width="50" height="50" as="geometry">
            <mxRectangle width="50" height="50" as="alternateBounds" />
          </mxGeometry>
        </mxCell>
        <mxCell id="kqkQRGZJNf3CveF5nU2B-76" value="" style="shape=tableRow;horizontal=0;startSize=0;swimlaneHead=0;swimlaneBody=0;strokeColor=inherit;top=0;left=0;bottom=0;right=0;collapsible=0;dropTarget=0;fillColor=none;points=[[0,0.5],[1,0.5]];portConstraint=eastwest;fontFamily=Helvetica;fontSize=11;fontColor=default;" parent="kqkQRGZJNf3CveF5nU2B-71" vertex="1">
          <mxGeometry y="50" width="150" height="50" as="geometry" />
        </mxCell>
        <mxCell id="kqkQRGZJNf3CveF5nU2B-77" value="" style="shape=partialRectangle;html=1;whiteSpace=wrap;connectable=0;strokeColor=inherit;overflow=hidden;fillColor=none;top=0;left=0;bottom=0;right=0;pointerEvents=1;fontFamily=Helvetica;fontSize=11;fontColor=default;" parent="kqkQRGZJNf3CveF5nU2B-76" vertex="1">
          <mxGeometry width="50" height="50" as="geometry">
            <mxRectangle width="50" height="50" as="alternateBounds" />
          </mxGeometry>
        </mxCell>
        <mxCell id="kqkQRGZJNf3CveF5nU2B-78" value="" style="shape=partialRectangle;html=1;whiteSpace=wrap;connectable=0;strokeColor=inherit;overflow=hidden;fillColor=none;top=0;left=0;bottom=0;right=0;pointerEvents=1;fontFamily=Helvetica;fontSize=11;fontColor=default;" parent="kqkQRGZJNf3CveF5nU2B-76" vertex="1">
          <mxGeometry x="50" width="50" height="50" as="geometry">
            <mxRectangle width="50" height="50" as="alternateBounds" />
          </mxGeometry>
        </mxCell>
        <mxCell id="kqkQRGZJNf3CveF5nU2B-79" value="" style="shape=partialRectangle;html=1;whiteSpace=wrap;connectable=0;strokeColor=inherit;overflow=hidden;fillColor=none;top=0;left=0;bottom=0;right=0;pointerEvents=1;fontFamily=Helvetica;fontSize=11;fontColor=default;" parent="kqkQRGZJNf3CveF5nU2B-76" vertex="1">
          <mxGeometry x="100" width="50" height="50" as="geometry">
            <mxRectangle width="50" height="50" as="alternateBounds" />
          </mxGeometry>
        </mxCell>
        <mxCell id="kqkQRGZJNf3CveF5nU2B-80" value="" style="shape=tableRow;horizontal=0;startSize=0;swimlaneHead=0;swimlaneBody=0;strokeColor=inherit;top=0;left=0;bottom=0;right=0;collapsible=0;dropTarget=0;fillColor=none;points=[[0,0.5],[1,0.5]];portConstraint=eastwest;fontFamily=Helvetica;fontSize=11;fontColor=default;" parent="kqkQRGZJNf3CveF5nU2B-71" vertex="1">
          <mxGeometry y="100" width="150" height="50" as="geometry" />
        </mxCell>
        <mxCell id="kqkQRGZJNf3CveF5nU2B-81" value="" style="shape=partialRectangle;html=1;whiteSpace=wrap;connectable=0;strokeColor=inherit;overflow=hidden;fillColor=none;top=0;left=0;bottom=0;right=0;pointerEvents=1;fontFamily=Helvetica;fontSize=11;fontColor=default;" parent="kqkQRGZJNf3CveF5nU2B-80" vertex="1">
          <mxGeometry width="50" height="50" as="geometry">
            <mxRectangle width="50" height="50" as="alternateBounds" />
          </mxGeometry>
        </mxCell>
        <mxCell id="kqkQRGZJNf3CveF5nU2B-82" value="" style="shape=partialRectangle;html=1;whiteSpace=wrap;connectable=0;strokeColor=inherit;overflow=hidden;fillColor=none;top=0;left=0;bottom=0;right=0;pointerEvents=1;fontFamily=Helvetica;fontSize=11;fontColor=default;" parent="kqkQRGZJNf3CveF5nU2B-80" vertex="1">
          <mxGeometry x="50" width="50" height="50" as="geometry">
            <mxRectangle width="50" height="50" as="alternateBounds" />
          </mxGeometry>
        </mxCell>
        <mxCell id="kqkQRGZJNf3CveF5nU2B-83" value="" style="shape=partialRectangle;html=1;whiteSpace=wrap;connectable=0;strokeColor=inherit;overflow=hidden;fillColor=none;top=0;left=0;bottom=0;right=0;pointerEvents=1;fontFamily=Helvetica;fontSize=11;fontColor=default;" parent="kqkQRGZJNf3CveF5nU2B-80" vertex="1">
          <mxGeometry x="100" width="50" height="50" as="geometry">
            <mxRectangle width="50" height="50" as="alternateBounds" />
          </mxGeometry>
        </mxCell>
        <mxCell id="kqkQRGZJNf3CveF5nU2B-146" style="edgeStyle=none;shape=connector;rounded=0;orthogonalLoop=1;jettySize=auto;html=1;entryX=0;entryY=0.5;entryDx=0;entryDy=0;labelBackgroundColor=default;strokeColor=default;strokeWidth=2;fontFamily=Helvetica;fontSize=11;fontColor=default;endArrow=blockThin;endFill=1;" parent="1" source="kqkQRGZJNf3CveF5nU2B-91" target="kqkQRGZJNf3CveF5nU2B-2" edge="1">
          <mxGeometry relative="1" as="geometry" />
        </mxCell>
        <mxCell id="kqkQRGZJNf3CveF5nU2B-91" value="" style="rounded=1;whiteSpace=wrap;html=1;fontFamily=Helvetica;fontSize=11;fontColor=default;" parent="1" vertex="1">
          <mxGeometry x="-983" y="309.33" width="20" height="72.3" as="geometry" />
        </mxCell>
        <mxCell id="kqkQRGZJNf3CveF5nU2B-92" value="&lt;font style=&quot;font-size: 11px;&quot; face=&quot;Times New Roman&quot;&gt;$$[B,N,3]$$&lt;/font&gt;" style="text;html=1;strokeColor=none;fillColor=none;align=center;verticalAlign=middle;whiteSpace=wrap;rounded=0;fontSize=11;fontFamily=Helvetica;fontColor=default;direction=west;rotation=-90;" parent="1" vertex="1">
          <mxGeometry x="-1002" y="338.45000000000005" width="57" height="12" as="geometry" />
        </mxCell>
        <mxCell id="kqkQRGZJNf3CveF5nU2B-145" style="edgeStyle=none;shape=connector;rounded=0;orthogonalLoop=1;jettySize=auto;html=1;labelBackgroundColor=default;strokeColor=default;fontFamily=Helvetica;fontSize=11;fontColor=default;endArrow=blockThin;endFill=1;strokeWidth=2;entryX=0;entryY=0.5;entryDx=0;entryDy=0;" parent="1" source="kqkQRGZJNf3CveF5nU2B-94" target="kqkQRGZJNf3CveF5nU2B-91" edge="1">
          <mxGeometry relative="1" as="geometry">
            <mxPoint x="-1012.4999999999998" y="343.8911000000001" as="targetPoint" />
          </mxGeometry>
        </mxCell>
        <mxCell id="kqkQRGZJNf3CveF5nU2B-94" value="" style="ellipse;whiteSpace=wrap;html=1;dashed=1;strokeColor=#808080;" parent="1" vertex="1">
          <mxGeometry x="-1140" y="311.95000000000005" width="120" height="69.68" as="geometry" />
        </mxCell>
        <mxCell id="kqkQRGZJNf3CveF5nU2B-95" value="" style="shape=ellipse;fillColor=#CCCCCC;strokeColor=none;html=1;sketch=0;gradientColor=#666666;" parent="1" vertex="1">
          <mxGeometry x="-1100" y="333.45000000000005" width="5" height="5" as="geometry" />
        </mxCell>
        <mxCell id="kqkQRGZJNf3CveF5nU2B-103" value="" style="shape=ellipse;fillColor=#CCCCCC;strokeColor=none;html=1;sketch=0;gradientColor=#666666;" parent="1" vertex="1">
          <mxGeometry x="-1090" y="343.45000000000005" width="5" height="5" as="geometry" />
        </mxCell>
        <mxCell id="kqkQRGZJNf3CveF5nU2B-104" value="" style="shape=ellipse;fillColor=#CCCCCC;strokeColor=none;html=1;sketch=0;gradientColor=#666666;" parent="1" vertex="1">
          <mxGeometry x="-1110" y="352.45000000000005" width="5" height="5" as="geometry" />
        </mxCell>
        <mxCell id="kqkQRGZJNf3CveF5nU2B-105" value="" style="shape=ellipse;fillColor=#CCCCCC;strokeColor=none;html=1;sketch=0;gradientColor=#666666;" parent="1" vertex="1">
          <mxGeometry x="-1090" y="357.45000000000005" width="5" height="5" as="geometry" />
        </mxCell>
        <mxCell id="kqkQRGZJNf3CveF5nU2B-106" value="" style="shape=ellipse;fillColor=#CCCCCC;strokeColor=none;html=1;sketch=0;gradientColor=#666666;" parent="1" vertex="1">
          <mxGeometry x="-1070" y="362.45000000000005" width="5" height="5" as="geometry" />
        </mxCell>
        <mxCell id="kqkQRGZJNf3CveF5nU2B-107" value="" style="shape=ellipse;fillColor=#CCCCCC;strokeColor=none;html=1;sketch=0;gradientColor=#666666;" parent="1" vertex="1">
          <mxGeometry x="-1070" y="332.45000000000005" width="5" height="5" as="geometry" />
        </mxCell>
        <mxCell id="kqkQRGZJNf3CveF5nU2B-108" value="" style="shape=ellipse;fillColor=#CCCCCC;strokeColor=none;html=1;sketch=0;gradientColor=#666666;" parent="1" vertex="1">
          <mxGeometry x="-1055" y="347.44999999999993" width="5" height="5" as="geometry" />
        </mxCell>
        <mxCell id="kqkQRGZJNf3CveF5nU2B-109" value="" style="shape=ellipse;fillColor=#CCCCCC;strokeColor=none;html=1;sketch=0;gradientColor=#666666;" parent="1" vertex="1">
          <mxGeometry x="-1065" y="354.2899999999999" width="5" height="5" as="geometry" />
        </mxCell>
        <mxCell id="kqkQRGZJNf3CveF5nU2B-110" value="" style="shape=ellipse;fillColor=#CCCCCC;strokeColor=none;html=1;sketch=0;gradientColor=#666666;" parent="1" vertex="1">
          <mxGeometry x="-1048.5" y="337.44999999999993" width="5" height="5" as="geometry" />
        </mxCell>
        <mxCell id="kqkQRGZJNf3CveF5nU2B-111" value="" style="shape=ellipse;fillColor=#CCCCCC;strokeColor=none;html=1;sketch=0;gradientColor=#666666;" parent="1" vertex="1">
          <mxGeometry x="-1120" y="337.44999999999993" width="5" height="5" as="geometry" />
        </mxCell>
        <mxCell id="kqkQRGZJNf3CveF5nU2B-112" value="" style="shape=ellipse;fillColor=#CCCCCC;strokeColor=none;html=1;sketch=0;gradientColor=#666666;" parent="1" vertex="1">
          <mxGeometry x="-1085" y="327.44999999999993" width="5" height="5" as="geometry" />
        </mxCell>
        <mxCell id="kqkQRGZJNf3CveF5nU2B-113" value="" style="shape=ellipse;fillColor=#CCCCCC;strokeColor=none;html=1;sketch=0;gradientColor=#666666;" parent="1" vertex="1">
          <mxGeometry x="-1075" y="343.44999999999993" width="5" height="5" as="geometry" />
        </mxCell>
        <mxCell id="kqkQRGZJNf3CveF5nU2B-148" style="edgeStyle=none;shape=connector;rounded=0;orthogonalLoop=1;jettySize=auto;html=1;labelBackgroundColor=default;strokeColor=default;strokeWidth=2;fontFamily=Helvetica;fontSize=11;fontColor=default;endArrow=blockThin;endFill=1;" parent="1" source="kqkQRGZJNf3CveF5nU2B-116" target="kqkQRGZJNf3CveF5nU2B-143" edge="1">
          <mxGeometry relative="1" as="geometry" />
        </mxCell>
        <mxCell id="kqkQRGZJNf3CveF5nU2B-116" value="" style="ellipse;whiteSpace=wrap;html=1;dashed=1;strokeColor=#808080;" parent="1" vertex="1">
          <mxGeometry x="-1140" y="541.79" width="120" height="69.68" as="geometry" />
        </mxCell>
        <mxCell id="kqkQRGZJNf3CveF5nU2B-127" style="edgeStyle=none;shape=connector;rounded=0;orthogonalLoop=1;jettySize=auto;html=1;entryX=0.37;entryY=0.482;entryDx=0;entryDy=0;entryPerimeter=0;labelBackgroundColor=default;strokeColor=default;fontFamily=Helvetica;fontSize=11;fontColor=default;endArrow=none;endFill=0;" parent="1" edge="1">
          <mxGeometry relative="1" as="geometry">
            <mxPoint x="-1097.5" y="563.88" as="sourcePoint" />
            <mxPoint x="-1082.5" y="553.88" as="targetPoint" />
          </mxGeometry>
        </mxCell>
        <mxCell id="kqkQRGZJNf3CveF5nU2B-129" style="edgeStyle=none;shape=connector;rounded=0;orthogonalLoop=1;jettySize=auto;html=1;labelBackgroundColor=default;strokeColor=default;fontFamily=Helvetica;fontSize=11;fontColor=default;endArrow=none;endFill=0;" parent="1" edge="1">
          <mxGeometry relative="1" as="geometry">
            <mxPoint x="-1097.5" y="563.88" as="sourcePoint" />
            <mxPoint x="-1077.5" y="563.88" as="targetPoint" />
          </mxGeometry>
        </mxCell>
        <mxCell id="kqkQRGZJNf3CveF5nU2B-131" style="edgeStyle=none;shape=connector;rounded=0;orthogonalLoop=1;jettySize=auto;html=1;labelBackgroundColor=default;strokeColor=default;fontFamily=Helvetica;fontSize=11;fontColor=default;endArrow=none;endFill=0;" parent="1" edge="1">
          <mxGeometry relative="1" as="geometry">
            <mxPoint x="-1077.5" y="563.88" as="sourcePoint" />
            <mxPoint x="-1077.5" y="599.38" as="targetPoint" />
          </mxGeometry>
        </mxCell>
        <mxCell id="kqkQRGZJNf3CveF5nU2B-125" style="rounded=0;orthogonalLoop=1;jettySize=auto;html=1;endArrow=none;endFill=0;" parent="1" edge="1">
          <mxGeometry relative="1" as="geometry">
            <mxPoint x="-1097.5" y="599.38" as="sourcePoint" />
            <mxPoint x="-1097.5" y="563.88" as="targetPoint" />
          </mxGeometry>
        </mxCell>
        <mxCell id="kqkQRGZJNf3CveF5nU2B-130" style="edgeStyle=none;shape=connector;rounded=0;orthogonalLoop=1;jettySize=auto;html=1;labelBackgroundColor=default;strokeColor=default;fontFamily=Helvetica;fontSize=11;fontColor=default;endArrow=none;endFill=0;" parent="1" edge="1">
          <mxGeometry relative="1" as="geometry">
            <mxPoint x="-1097.5" y="599.38" as="sourcePoint" />
            <mxPoint x="-1077.5" y="599.38" as="targetPoint" />
          </mxGeometry>
        </mxCell>
        <mxCell id="kqkQRGZJNf3CveF5nU2B-136" style="edgeStyle=none;shape=connector;rounded=0;orthogonalLoop=1;jettySize=auto;html=1;labelBackgroundColor=default;strokeColor=default;fontFamily=Helvetica;fontSize=11;fontColor=default;endArrow=none;endFill=0;" parent="1" edge="1">
          <mxGeometry relative="1" as="geometry">
            <mxPoint x="-1097.5" y="599.38" as="sourcePoint" />
            <mxPoint x="-1082.5" y="589.38" as="targetPoint" />
          </mxGeometry>
        </mxCell>
        <mxCell id="kqkQRGZJNf3CveF5nU2B-137" style="edgeStyle=none;shape=connector;rounded=0;orthogonalLoop=1;jettySize=auto;html=1;labelBackgroundColor=default;strokeColor=default;fontFamily=Helvetica;fontSize=11;fontColor=default;endArrow=none;endFill=0;" parent="1" edge="1">
          <mxGeometry relative="1" as="geometry">
            <mxPoint x="-1077.5" y="599.38" as="sourcePoint" />
            <mxPoint x="-1062.5" y="589.38" as="targetPoint" />
          </mxGeometry>
        </mxCell>
        <mxCell id="kqkQRGZJNf3CveF5nU2B-138" style="edgeStyle=none;shape=connector;rounded=0;orthogonalLoop=1;jettySize=auto;html=1;labelBackgroundColor=default;strokeColor=default;fontFamily=Helvetica;fontSize=11;fontColor=default;endArrow=none;endFill=0;" parent="1" edge="1">
          <mxGeometry relative="1" as="geometry">
            <mxPoint x="-1062.5" y="589.38" as="sourcePoint" />
            <mxPoint x="-1082.5" y="589.38" as="targetPoint" />
          </mxGeometry>
        </mxCell>
        <mxCell id="kqkQRGZJNf3CveF5nU2B-134" style="edgeStyle=none;shape=connector;rounded=0;orthogonalLoop=1;jettySize=auto;html=1;entryX=0.54;entryY=0.393;entryDx=0;entryDy=0;entryPerimeter=0;labelBackgroundColor=default;strokeColor=default;fontFamily=Helvetica;fontSize=11;fontColor=default;endArrow=none;endFill=0;" parent="1" edge="1">
          <mxGeometry relative="1" as="geometry">
            <mxPoint x="-1062.5" y="553.88" as="sourcePoint" />
            <mxPoint x="-1062.5" y="589.38" as="targetPoint" />
          </mxGeometry>
        </mxCell>
        <mxCell id="kqkQRGZJNf3CveF5nU2B-140" style="edgeStyle=none;shape=connector;rounded=0;orthogonalLoop=1;jettySize=auto;html=1;entryX=0.825;entryY=1.009;entryDx=0;entryDy=0;entryPerimeter=0;labelBackgroundColor=default;strokeColor=default;fontFamily=Helvetica;fontSize=11;fontColor=default;endArrow=none;endFill=0;" parent="1" edge="1">
          <mxGeometry relative="1" as="geometry">
            <mxPoint x="-1062.5" y="553.88" as="sourcePoint" />
            <mxPoint x="-1082.5" y="553.88" as="targetPoint" />
          </mxGeometry>
        </mxCell>
        <mxCell id="kqkQRGZJNf3CveF5nU2B-141" style="edgeStyle=none;shape=connector;rounded=0;orthogonalLoop=1;jettySize=auto;html=1;entryX=0.811;entryY=1.047;entryDx=0;entryDy=0;entryPerimeter=0;labelBackgroundColor=default;strokeColor=default;fontFamily=Helvetica;fontSize=11;fontColor=default;endArrow=none;endFill=0;" parent="1" edge="1">
          <mxGeometry relative="1" as="geometry">
            <mxPoint x="-1062.5" y="553.88" as="sourcePoint" />
            <mxPoint x="-1082.5" y="553.88" as="targetPoint" />
          </mxGeometry>
        </mxCell>
        <mxCell id="kqkQRGZJNf3CveF5nU2B-142" style="edgeStyle=none;shape=connector;rounded=0;orthogonalLoop=1;jettySize=auto;html=1;labelBackgroundColor=default;strokeColor=default;fontFamily=Helvetica;fontSize=11;fontColor=default;endArrow=none;endFill=0;" parent="1" edge="1">
          <mxGeometry relative="1" as="geometry">
            <mxPoint x="-1062.5" y="553.88" as="sourcePoint" />
            <mxPoint x="-1077.5" y="563.88" as="targetPoint" />
          </mxGeometry>
        </mxCell>
        <mxCell id="kqkQRGZJNf3CveF5nU2B-133" style="edgeStyle=none;shape=connector;rounded=0;orthogonalLoop=1;jettySize=auto;html=1;labelBackgroundColor=default;strokeColor=default;fontFamily=Helvetica;fontSize=11;fontColor=default;endArrow=none;endFill=0;" parent="1" edge="1">
          <mxGeometry relative="1" as="geometry">
            <mxPoint x="-1082.5" y="553.88" as="sourcePoint" />
            <mxPoint x="-1062.5" y="553.88" as="targetPoint" />
          </mxGeometry>
        </mxCell>
        <mxCell id="kqkQRGZJNf3CveF5nU2B-135" style="edgeStyle=none;shape=connector;rounded=0;orthogonalLoop=1;jettySize=auto;html=1;labelBackgroundColor=default;strokeColor=default;fontFamily=Helvetica;fontSize=11;fontColor=default;endArrow=none;endFill=0;" parent="1" edge="1">
          <mxGeometry relative="1" as="geometry">
            <mxPoint x="-1082.5" y="589.38" as="sourcePoint" />
            <mxPoint x="-1082.5" y="553.88" as="targetPoint" />
          </mxGeometry>
        </mxCell>
        <mxCell id="kqkQRGZJNf3CveF5nU2B-139" style="edgeStyle=none;shape=connector;rounded=0;orthogonalLoop=1;jettySize=auto;html=1;labelBackgroundColor=default;strokeColor=default;fontFamily=Helvetica;fontSize=11;fontColor=default;endArrow=none;endFill=0;" parent="1" edge="1">
          <mxGeometry relative="1" as="geometry">
            <mxPoint x="-1062.5" y="553.88" as="sourcePoint" />
            <mxPoint x="-1062.5" y="553.88" as="targetPoint" />
          </mxGeometry>
        </mxCell>
        <mxCell id="kqkQRGZJNf3CveF5nU2B-149" style="edgeStyle=none;shape=connector;rounded=0;orthogonalLoop=1;jettySize=auto;html=1;entryX=0;entryY=0.5;entryDx=0;entryDy=0;labelBackgroundColor=default;strokeColor=default;strokeWidth=2;fontFamily=Helvetica;fontSize=11;fontColor=default;endArrow=blockThin;endFill=1;" parent="1" source="kqkQRGZJNf3CveF5nU2B-143" target="kqkQRGZJNf3CveF5nU2B-43" edge="1">
          <mxGeometry relative="1" as="geometry" />
        </mxCell>
        <mxCell id="kqkQRGZJNf3CveF5nU2B-143" value="" style="rounded=1;whiteSpace=wrap;html=1;fontFamily=Helvetica;fontSize=11;fontColor=default;" parent="1" vertex="1">
          <mxGeometry x="-983" y="539.1699999999998" width="20" height="72.3" as="geometry" />
        </mxCell>
        <mxCell id="kqkQRGZJNf3CveF5nU2B-144" value="&lt;font style=&quot;font-size: 11px;&quot; face=&quot;Times New Roman&quot;&gt;$$[B,W,n \times j]$$&lt;/font&gt;" style="text;html=1;strokeColor=none;fillColor=none;align=center;verticalAlign=middle;whiteSpace=wrap;rounded=0;fontSize=11;fontFamily=Helvetica;fontColor=default;direction=west;rotation=-90;" parent="1" vertex="1">
          <mxGeometry x="-1002" y="568.9999999999999" width="57" height="12" as="geometry" />
        </mxCell>
        <mxCell id="kqkQRGZJNf3CveF5nU2B-151" value="" style="shape=ellipse;fillColor=#f8cecc;strokeColor=#b85450;html=1;sketch=0;" parent="1" vertex="1">
          <mxGeometry x="-1077" y="571.4999999999999" width="7" height="7" as="geometry" />
        </mxCell>
        <mxCell id="kqkQRGZJNf3CveF5nU2B-160" style="edgeStyle=none;shape=connector;rounded=0;orthogonalLoop=1;jettySize=auto;html=1;labelBackgroundColor=default;strokeColor=default;strokeWidth=2;fontFamily=Helvetica;fontSize=11;fontColor=default;endArrow=blockThin;endFill=1;" parent="1" source="kqkQRGZJNf3CveF5nU2B-35" edge="1">
          <mxGeometry relative="1" as="geometry">
            <mxPoint x="-410" y="365.31999999999994" as="targetPoint" />
          </mxGeometry>
        </mxCell>
        <mxCell id="kqkQRGZJNf3CveF5nU2B-161" style="edgeStyle=none;shape=connector;rounded=0;orthogonalLoop=1;jettySize=auto;html=1;labelBackgroundColor=default;strokeColor=default;strokeWidth=2;fontFamily=Helvetica;fontSize=11;fontColor=default;endArrow=blockThin;endFill=1;" parent="1" source="kqkQRGZJNf3CveF5nU2B-76" edge="1">
          <mxGeometry relative="1" as="geometry">
            <mxPoint x="-410" y="595.3199999999999" as="targetPoint" />
            <mxPoint x="-460" y="595" as="sourcePoint" />
          </mxGeometry>
        </mxCell>
      </root>
    </mxGraphModel>
  </diagram>
</mxfile>
